<svg width="251" height="127" viewBox="0 0 251 127" fill="none" xmlns="http://www.w3.org/2000/svg">
<path d="M14.3864 7.68616C14.3864 3.92058 11.3338 0.867981 7.56818 0.867981C3.8026 0.867981 0.75 3.92058 0.75 7.68616V53.1407C0.75 69.4582 13.9779 82.6862 30.2955 82.6862C46.613 82.6862 59.8409 69.4582 59.8409 53.1407C59.8409 36.8232 46.613 23.5953 30.2955 23.5953C26.5299 23.5953 23.4773 26.6479 23.4773 30.4134C23.4773 34.179 26.5299 37.2316 30.2955 37.2316C39.0818 37.2316 46.2045 44.3544 46.2045 53.1407C46.2045 61.9271 39.0818 69.0498 30.2955 69.0498C21.5091 69.0498 14.3864 61.9271 14.3864 53.1407V7.68616Z" fill="url(#paint0_linear_207_5)"/>
<path d="M243.932 0.867981C240.166 0.867981 237.114 3.92059 237.114 7.68616V53.1407C237.114 61.9271 229.991 69.0498 221.205 69.0498C212.418 69.0498 205.295 61.9271 205.295 53.1407C205.295 44.3544 212.418 37.2316 221.205 37.2316C224.97 37.2316 228.023 34.179 228.023 30.4134C228.023 26.6479 224.97 23.5953 221.205 23.5953C204.887 23.5953 191.659 36.8232 191.659 53.1407C191.659 69.4582 204.887 82.6862 221.205 82.6862C237.522 82.6862 250.75 69.4582 250.75 53.1407V7.68616C250.75 3.92059 247.697 0.867981 243.932 0.867981Z" fill="url(#paint1_linear_207_5)"/>
<path d="M155.295 37.2316C151.045 37.2316 147.196 38.8897 144.337 41.6079C141.279 44.5148 139.386 48.6009 139.386 53.1407V75.868C139.386 79.6336 136.334 82.6862 132.568 82.6862C128.803 82.6862 125.75 79.6336 125.75 75.868V53.1407C125.75 44.7121 129.288 37.0989 134.941 31.7249C140.234 26.6934 147.41 23.5953 155.295 23.5953C171.613 23.5953 184.841 36.8232 184.841 53.1407V75.868C184.841 79.6336 181.788 82.6862 178.023 82.6862C174.257 82.6862 171.205 79.6336 171.205 75.868V53.1407C171.205 44.3544 164.082 37.2316 155.295 37.2316Z" fill="url(#paint2_linear_207_5)"/>
<path d="M106.288 65.4494L106.294 65.4565C107.47 64.4922 108.974 63.9135 110.614 63.9135C114.379 63.9135 117.432 66.9661 117.432 70.7317C117.432 73.0057 116.319 75.0197 114.607 76.2584C103.008 85.5157 86.0539 84.7737 75.3128 74.0325C63.7745 62.4943 63.7745 43.7871 75.3128 32.2489C86.7812 20.7804 105.331 20.7111 116.886 32.041C119.685 34.7851 119.704 39.2835 116.936 42.052L102.617 56.371C99.954 59.0336 95.6369 59.0336 92.9743 56.371C90.3116 53.7083 90.3116 49.3913 92.9743 46.7286L101.551 38.1523C95.9434 36.1569 89.4416 37.4048 84.9551 41.8913C78.7422 48.1042 78.7422 58.1772 84.9551 64.3901C90.7925 70.2276 100.038 70.581 106.288 65.4494Z" fill="url(#paint3_linear_207_5)"/>
<path d="M195.116 121.822C194.799 120.813 195.26 119.833 196.24 119.458C197.364 119.026 198.43 119.631 198.834 120.467C199.266 121.361 200.246 122.34 202.033 122.34C203.733 122.34 204.914 121.533 204.943 120.237C204.972 119.343 204.569 118.565 202.551 117.989L200.159 117.326C195.779 115.971 195.03 113.464 195.03 111.678C195.03 108.133 198.056 105.741 201.86 105.741C204.713 105.741 206.845 106.98 207.912 109.055C208.401 110.006 207.998 110.928 207.278 111.389C206.24 112.052 205.318 111.764 204.626 110.899C203.79 109.833 202.695 109.516 201.802 109.516C200.332 109.516 199.237 110.381 199.237 111.562C199.237 112.081 199.439 113.032 201.37 113.58L203.733 114.271C208.546 115.654 209.237 118.363 209.18 120.265C209.122 124.214 205.548 126.087 202.033 126.087C198.517 126.087 195.981 124.386 195.116 121.822Z" fill="#47528E"/>
<path d="M161.324 105.971H170.488C171.439 105.971 172.217 106.807 172.217 107.845C172.217 108.796 171.41 109.689 170.488 109.689H163.86V114.242H169.595C170.546 114.242 171.324 115.049 171.324 116.058C171.324 117.009 170.517 117.873 169.595 117.873H163.86V122.138H170.748C171.699 122.138 172.477 122.974 172.477 123.983C172.477 124.934 171.67 125.827 170.748 125.827H161.324C160.258 125.827 159.681 125.02 159.652 124.04V107.758C159.681 106.778 160.258 105.971 161.324 105.971Z" fill="#47528E"/>
<path d="M129.425 109.689H125.535V115.28H129.31C130.952 115.28 131.817 113.781 131.817 112.484C131.817 111.245 131.01 109.689 129.425 109.689ZM136.024 112.369C135.938 114.963 134.497 117.441 131.558 118.306L134.785 122.945C135.362 123.81 134.987 125.107 134.007 125.683C133.085 126.231 131.817 125.971 131.269 125.107L127.465 118.824H125.535V124.012C125.535 125.078 124.584 125.971 123.431 125.971C122.336 125.971 121.327 125.049 121.327 124.012V108.133C121.356 106.951 122.076 105.971 123.344 105.971H129.425C133.863 105.971 135.967 109.141 136.024 112.369Z" fill="#47528E"/>
<path d="M93.1239 121.13H86.3227L84.9683 124.761C84.5936 125.741 83.3833 126.202 82.317 125.856C81.2795 125.51 80.7031 124.214 81.049 123.234L86.7838 107.787C87.2449 106.577 88.1671 105.827 89.6369 105.827H89.8098C91.2795 105.827 92.2017 106.577 92.6628 107.787L98.3977 123.234C98.7435 124.214 98.1671 125.51 97.1297 125.856C96.0634 126.202 94.853 125.741 94.4784 124.761L93.1239 121.13ZM87.706 117.47H91.7406L89.7233 110.554L87.706 117.47Z" fill="#47528E"/>
<path d="M42.1765 115.914C42.1765 110.265 46.4704 105.741 52.1477 105.741C54.9719 105.741 57.4215 106.778 59.1794 108.479C59.9287 109.17 59.7269 110.64 58.92 111.361C58.1131 112.052 56.9315 112.023 56.2111 111.389C55.1736 110.409 53.7615 109.833 52.1477 109.833C48.8624 109.833 46.384 112.542 46.384 115.914C46.384 119.286 48.8624 121.995 52.1477 121.995C53.7615 121.995 55.1736 121.418 56.2111 120.438C56.9315 119.804 58.1131 119.775 58.92 120.467C59.7269 121.188 59.9287 122.657 59.1794 123.349C57.4215 125.049 54.9719 126.087 52.1477 126.087C46.4704 126.087 42.1765 121.562 42.1765 115.914Z" fill="#47528E"/>
<ellipse cx="71.2848" cy="116.142" rx="2.88184" ry="2.88184" fill="#47528E"/>
<ellipse cx="108.749" cy="116.142" rx="2.88184" ry="2.88184" fill="#47528E"/>
<ellipse cx="147.654" cy="116.142" rx="2.88184" ry="2.88184" fill="#47528E"/>
<ellipse cx="183.677" cy="116.142" rx="2.88184" ry="2.88184" fill="#47528E"/>
<defs>
<linearGradient id="paint0_linear_207_5" x1="0.750001" y1="41.7687" x2="250.75" y2="41.7687" gradientUnits="userSpaceOnUse">
<stop stop-color="#B666B6"/>
<stop offset="1" stop-color="#6471B4"/>
</linearGradient>
<linearGradient id="paint1_linear_207_5" x1="0.750001" y1="41.7687" x2="250.75" y2="41.7687" gradientUnits="userSpaceOnUse">
<stop stop-color="#B666B6"/>
<stop offset="1" stop-color="#6471B4"/>
</linearGradient>
<linearGradient id="paint2_linear_207_5" x1="0.750001" y1="41.7687" x2="250.75" y2="41.7687" gradientUnits="userSpaceOnUse">
<stop stop-color="#B666B6"/>
<stop offset="1" stop-color="#6471B4"/>
</linearGradient>
<linearGradient id="paint3_linear_207_5" x1="0.750001" y1="41.7687" x2="250.75" y2="41.7687" gradientUnits="userSpaceOnUse">
<stop stop-color="#B666B6"/>
<stop offset="1" stop-color="#6471B4"/>
</linearGradient>
</defs>
</svg>
