<?xml version="1.0" encoding="UTF-8"?>
<svg width="50px" height="58px" viewBox="0 0 50 58" version="1.1" xmlns="http://www.w3.org/2000/svg" xmlns:xlink="http://www.w3.org/1999/xlink">
    <!-- Generator: Sketch 52.5 (67469) - http://www.bohemiancoding.com/sketch -->
    <title>Person</title>
    <desc>Created with Sketch.</desc>
    <defs>
        <polygon id="path-1" points="0 0.517472094 21.9076026 0.517472094 21.9076026 25.5451669 0 25.5451669"></polygon>
        <polygon id="path-3" points="0.138238816 0.624031933 46.1445987 0.624031933 46.1445987 33.467453 0.138238816 33.467453"></polygon>
        <polygon id="path-5" points="0 57.0353509 49.0656513 57.0353509 49.0656513 0.730153855 0 0.730153855"></polygon>
    </defs>
    <g id="Symbols" stroke="none" stroke-width="1" fill="none" fill-rule="evenodd">
        <g id="Remedy/Equation" transform="translate(-1.000000, 0.000000)">
            <g id="Equation" transform="translate(1.000000, 0.000000)">
                <g id="Person">
                    <g id="Group-18">
                        <g id="Group-3" transform="translate(0.000000, 31.490184)">
                            <mask id="mask-2" fill="white">
                                <use xlink:href="#path-1"></use>
                            </mask>
                            <g id="Clip-2"></g>
                            <path d="M21.6549316,25.5451669 C21.8207013,24.7883001 21.9076026,24.0022388 21.9076026,23.1950115 C21.9076026,18.4917814 18.9405434,14.48192 14.7751224,12.9316933 C16.6153855,11.7237719 17.8305434,9.6422057 17.8305434,7.27745311 C17.8305434,3.54347957 14.8028724,0.517472094 11.0675763,0.517472094 C7.33228026,0.517472094 4.30387895,3.54347957 4.30387895,7.27745311 C4.30387895,9.60790219 5.48398421,11.6624635 7.27970132,12.8784134 C3.03687237,14.3877678 -0.000292105263,18.4370417 -0.000292105263,23.1950115 C-0.000292105263,24.0022388 0.0873394737,24.7883001 0.253109211,25.5451669 L21.6549316,25.5451669 Z" id="Fill-1" fill="#FFFFFF" mask="url(#mask-2)"></path>
                        </g>
                        <g id="Group-6" transform="translate(2.921053, 0.106122)">
                            <mask id="mask-4" fill="white">
                                <use xlink:href="#path-3"></use>
                            </mask>
                            <g id="Clip-5"></g>
                            <path d="M7.44087039,0.623667002 L38.8421862,0.623667002 C42.8746993,0.623667002 46.1448178,3.89125877 46.1448178,7.9222861 L46.1448178,21.4334898 C46.1448178,25.4645171 42.8746993,28.7321089 38.8421862,28.7321089 L21.8905875,28.7321089 L16.1580217,33.467453 L16.1580217,28.7321089 L7.44087039,28.7321089 C3.40762697,28.7321089 0.138238816,25.4645171 0.138238816,21.4334898 L0.138238816,7.9222861 C0.138238816,3.89125877 3.40762697,0.623667002 7.44087039,0.623667002 Z M21.364798,27.2723851 L38.8421862,27.2723851 C42.0684888,27.2723851 44.6842914,24.6580197 44.6842914,21.4334898 L44.6842914,7.9222861 C44.6842914,4.69775619 42.0684888,2.08339082 38.8421862,2.08339082 L7.44087039,2.08339082 C4.21456776,2.08339082 1.59876513,4.69775619 1.59876513,7.9222861 L1.59876513,21.4334898 C1.59876513,24.6580197 4.21456776,27.2723851 7.44087039,27.2723851 L16.1580217,27.2723851 L17.618548,27.2723851 L17.618548,30.3669996 L21.364798,27.2723851 Z" id="Fill-4" fill="#FFFFFF" mask="url(#mask-4)"></path>
                        </g>
                        <mask id="mask-6" fill="white">
                            <use xlink:href="#path-5"></use>
                        </mask>
                        <g id="Clip-8"></g>
                        <polygon id="Fill-7" fill="#FFFFFF" mask="url(#mask-6)" points="10.3617039 8.75863487 31.5393355 8.75863487 31.5393355 7.29891105 10.3617039 7.29891105"></polygon>
                        <polygon id="Fill-9" fill="#FFFFFF" mask="url(#mask-6)" points="10.3617039 21.8961493 31.5393355 21.8961493 31.5393355 20.4364254 10.3617039 20.4364254"></polygon>
                        <polygon id="Fill-10" fill="#FFFFFF" mask="url(#mask-6)" points="32.9998618 8.75863487 41.7630197 8.75863487 41.7630197 7.29891105 32.9998618 7.29891105"></polygon>
                        <polygon id="Fill-11" fill="#FFFFFF" mask="url(#mask-6)" points="10.3617039 13.1378063 19.1248618 13.1378063 19.1248618 11.6780825 10.3617039 11.6780825"></polygon>
                        <polygon id="Fill-12" fill="#FFFFFF" mask="url(#mask-6)" points="10.3617039 17.5169778 14.7432829 17.5169778 14.7432829 16.057254 10.3617039 16.057254"></polygon>
                        <polygon id="Fill-13" fill="#FFFFFF" mask="url(#mask-6)" points="32.9998618 21.8961493 41.7630197 21.8961493 41.7630197 20.4364254 32.9998618 20.4364254"></polygon>
                        <polygon id="Fill-14" fill="#FFFFFF" mask="url(#mask-6)" points="16.2038092 17.5169778 24.9669671 17.5169778 24.9669671 16.057254 16.2038092 16.057254"></polygon>
                        <polygon id="Fill-15" fill="#FFFFFF" mask="url(#mask-6)" points="26.4274934 17.5169778 41.7630197 17.5169778 41.7630197 16.057254 26.4274934 16.057254"></polygon>
                        <polygon id="Fill-16" fill="#FFFFFF" mask="url(#mask-6)" points="20.5853882 13.1378063 27.8880197 13.1378063 27.8880197 11.6780825 20.5853882 11.6780825"></polygon>
                        <polygon id="Fill-17" fill="#FFFFFF" mask="url(#mask-6)" points="29.3485461 13.1378063 41.7630197 13.1378063 41.7630197 11.6780825 29.3485461 11.6780825"></polygon>
                    </g>
                </g>
            </g>
        </g>
    </g>
</svg>