<?xml version="1.0" encoding="UTF-8"?>
<svg width="23px" height="22px" viewBox="0 0 23 22" version="1.1" xmlns="http://www.w3.org/2000/svg" xmlns:xlink="http://www.w3.org/1999/xlink">
    <!-- Generator: Sketch 52.4 (67378) - http://www.bohemiancoding.com/sketch -->
    <title>Instagram</title>
    <desc>Created with Sketch.</desc>
    <g id="Home" stroke="none" stroke-width="1" fill="none" fill-rule="evenodd" opacity="0.3">
        <g id="Studio" transform="translate(-413.000000, -461.000000)" fill="#FFFFFF">
            <g id="Instagram" transform="translate(70.000000, 181.000000)">
                <g transform="translate(343.000000, 280.000000)" id="instagram">
                    <g>
                        <path d="M20.8734871,18.2559318 C20.8734871,18.7126905 20.4815432,19.081611 19.9963727,19.081611 L3.85201768,19.081611 C3.36666051,19.081611 2.97471663,18.7126905 2.97471663,18.2559318 L2.97471663,9.17346104 L5.25181725,9.17346104 C5.13040797,9.64778736 5.06517731,10.1396813 5.06517731,10.6579268 C5.06517731,14.2153742 8.13531104,17.1052513 11.9241952,17.1052513 C15.7128927,17.1052513 18.7832131,14.2153742 18.7832131,10.6579268 C18.7832131,10.1484652 18.7084638,9.65657118 18.5871478,9.17346104 L20.8829124,9.17346104 L20.8734871,18.2559318 Z M11.9147699,6.2133134 C14.5277291,6.2133134 16.6460924,8.20724074 16.6460924,10.6667106 C16.6460924,13.1261804 14.5277291,15.1201078 11.9147699,15.1201078 C9.30181068,15.1201078 7.18344734,13.1261804 7.18344734,10.6667106 C7.17411534,8.19845692 9.29247869,6.2133134 11.9147699,6.2133134 Z M16.6460924,3.53424803 C16.6460924,3.10384081 17.0193723,2.74370415 17.4859722,2.74370415 L19.4923515,2.74370415 C19.9497127,2.74370415 20.3322313,3.09505699 20.3322313,3.53424803 L20.3322313,5.42276952 C20.3322313,5.85317674 19.9589514,6.2133134 19.4923515,6.2133134 L17.4859722,6.2133134 C17.0193723,6.2133134 16.6460924,5.86196057 16.6460924,5.42276952 L16.6460924,3.53424803 Z M20.1269273,0.266666667 L3.70261241,0.266666667 C2.14416889,0.266666667 0.865778605,1.47005013 0.865778605,2.92816439 L0.865778605,18.396473 C0.865778605,19.863371 2.14416889,21.0579707 3.70261241,21.0579707 L20.1269273,21.0579707 C21.6853709,21.0579707 22.9638545,19.863371 22.9638545,18.396473 L22.9638545,2.93694821 C22.9638545,1.47005013 21.6853709,0.266666667 20.1269273,0.266666667 Z" id="Fill-1"></path>
                    </g>
                </g>
            </g>
        </g>
    </g>
</svg>