<?xml version="1.0" encoding="UTF-8"?>
<svg width="57px" height="57px" viewBox="0 0 57 57" version="1.1" xmlns="http://www.w3.org/2000/svg" xmlns:xlink="http://www.w3.org/1999/xlink">
    <!-- Generator: Sketch 52.5 (67469) - http://www.bohemiancoding.com/sketch -->
    <title>love</title>
    <desc>Created with Sketch.</desc>
    <g id="Symbols" stroke="none" stroke-width="1" fill="none" fill-rule="evenodd">
        <g id="Remedy/Equation" transform="translate(-175.000000, 0.000000)">
            <g id="Equation" transform="translate(1.000000, 0.000000)">
                <g id="love" transform="translate(174.000000, 0.000000)">
                    <polygon id="Clip-2" points="0 0 57 0 57 57 0 57"></polygon>
                    <path d="M27.016269,6.3534474 L27.016269,0 L28.5,0 L29.983731,0 L29.983731,6.3534474 L29.983731,12.7068948 L28.5,12.7068948 L27.016269,12.7068948 L27.016269,6.3534474 Z M39.6242733,17.3073651 L38.6004989,16.2695386 L43.1014959,11.7679536 L47.6024928,7.26636869 L48.6228052,8.28549654 C49.1840017,8.84601191 49.643167,9.33282082 49.643167,9.36729961 C49.643167,9.43487211 40.7299497,18.3712115 40.6788104,18.3550357 C40.6618959,18.3496437 40.1873492,17.8782192 39.6242733,17.3073651 Z M11.8080755,13.8817956 L7.32631757,9.39885983 L8.36171453,8.36320986 L9.39716095,7.32760936 L13.881095,11.8124249 L18.3650291,16.2972898 L17.3315115,17.3310106 C16.7630941,17.8995891 16.296164,18.3647313 16.2938889,18.3647313 C16.2916633,18.3647313 14.2730473,16.3474498 11.8080755,13.8817956 Z M44.2955531,28.5364701 L44.2955531,27.0833646 L50.6477518,27.0833646 L57,27.0833646 L57,28.5364701 L57,29.9895757 L50.6477518,29.9895757 L44.2955531,29.9895757 L44.2955531,28.5364701 Z M0.0397145336,29.6095175 C0.0178542299,29.4004682 0,28.9176166 0,28.5364701 C0,28.1553731 0.0178542299,27.6725216 0.0397145336,27.4634723 L0.0794290672,27.0833646 L6.39196269,27.0833646 L12.7044469,27.0833646 L12.7044469,28.5364701 L12.7044469,29.9895757 L6.39196269,29.9895757 L0.0794290672,29.9895757 L0.0397145336,29.6095175 Z M28.2802594,39.988228 C28.0508252,39.8229574 22.9564347,35.7360083 22.7799202,35.575635 C22.7110256,35.5131081 22.3771861,35.2129398 22.0380547,34.9086162 C20.9793137,33.9586933 19.1154013,32.0887753 18.5832859,31.4426812 C17.5084711,30.1378296 16.9662664,29.1332451 16.7788217,28.0994749 C16.6090829,27.1635513 16.6197657,25.5571462 16.8003852,24.8416989 C17.1395662,23.498312 17.6176738,22.638222 18.5466377,21.7001218 C19.409279,20.8290499 19.7597362,20.5975918 21.112256,20.0055657 C21.2142377,19.9609461 21.4785397,19.8808089 21.6995662,19.8275325 C23.1582221,19.4758686 24.2522759,19.5467554 25.5324885,20.0758095 C26.5799037,20.5086989 27.0759644,20.8379046 27.9281206,21.6657419 L28.5,22.2212611 L29.0718794,21.6657419 C29.9240356,20.8379046 30.4200963,20.5086989 31.467561,20.0758095 C32.7477241,19.5467554 33.8418273,19.4758686 35.3004338,19.8275325 C35.5214603,19.8808089 35.7857128,19.9609461 35.887744,20.0055657 C37.2402638,20.5975918 37.5907705,20.8290499 38.4533623,21.7001712 C39.3823262,22.638222 39.8604338,23.498312 40.1996642,24.8416989 C40.3802837,25.5571462 40.3909171,27.1635513 40.2211783,28.0994749 C40.0337336,29.1332451 39.4915289,30.1378296 38.4167141,31.4426812 C37.8845987,32.0887753 36.0206369,33.9586933 34.9619453,34.9086162 C34.6228139,35.2129398 34.2889744,35.5131081 34.2200798,35.575635 C33.7336139,36.0175274 28.5459462,40.1367787 28.4878334,40.1273799 C28.4774967,40.1257475 28.3841206,40.0631217 28.2802594,39.988228 Z M9.24240781,49.4673735 C9.18088243,49.3993558 9.09952451,49.3437049 9.06173883,49.3437049 C8.97884772,49.3437049 7.72776573,48.0986593 7.72776573,48.0161972 C7.72776573,47.9843896 7.63814837,47.8658657 7.52859957,47.7528326 L7.32943341,47.5472955 L11.7976894,43.0778643 L16.2659453,38.6084332 L17.3146959,39.661842 L18.3634464,40.7152507 L13.9267445,45.1531711 C11.486551,47.5939927 9.45947766,49.591042 9.42213709,49.591042 C9.38484599,49.591042 9.30393319,49.5353912 9.24240781,49.4673735 Z M43.1034247,45.1833462 L38.6350698,40.7137172 L39.6704668,39.6781662 L40.7059132,38.6425162 L45.1896,43.1271339 L49.6732868,47.611702 L48.6543592,48.6323139 C48.0939046,49.1936208 47.6210395,49.6528763 47.6035809,49.6528763 C47.5860729,49.6528763 45.5610273,47.6415804 43.1034247,45.1833462 Z M27.2789883,56.9658928 L27.016269,56.9422474 L27.016269,50.6232293 L27.016269,44.3042112 L28.5,44.3042112 L29.983731,44.3042112 L29.983731,50.6179857 L29.983731,56.9317108 L29.603698,56.9714826 C29.2155046,57.0120459 27.7523974,57.0085832 27.2789883,56.9658928 Z" id="Fill-1" fill="#4480FF"></path>
                </g>
            </g>
        </g>
    </g>
</svg>