<?xml version="1.0" encoding="UTF-8"?>
<svg width="166px" height="50px" viewBox="0 0 166 50" version="1.1" xmlns="http://www.w3.org/2000/svg" xmlns:xlink="http://www.w3.org/1999/xlink">
    <!-- Generator: Sketch 52.5 (67469) - http://www.bohemiancoding.com/sketch -->
    <title>Group 29</title>
    <desc>Created with Sketch.</desc>
    <defs>
        <polygon id="path-1" points="0.00348880234 0.0235708402 18.0052948 0.0235708402 18.0052948 18.9361738 0.00348880234 18.9361738"></polygon>
        <polygon id="path-3" points="0 50 165.756689 50 165.756689 0.0404859967 0 0.0404859967"></polygon>
    </defs>
    <g id="Symbols" stroke="none" stroke-width="1" fill="none" fill-rule="evenodd">
        <g id="Remedy/LogoCombo/White">
            <g id="Group-29">
                <polygon id="Fill-1" fill="#FFFFFF" points="22 12 26 12 26 8 22 8"></polygon>
                <polygon id="Fill-2" fill="#FFFFFF" points="17 4 21 4 21 0 17 0"></polygon>
                <polygon id="Fill-3" fill="#FFFFFF" points="19 16 23 16 23 12 19 12"></polygon>
                <polygon id="Fill-4" fill="#FFFFFF" points="16 25 20 25 20 21 16 21"></polygon>
                <polygon id="Fill-5" fill="#FFFFFF" points="12 12 16 12 16 8 12 8"></polygon>
                <polygon id="Fill-6" fill="#FFFFFF" points="8 20 12 20 12 16 8 16"></polygon>
                <polygon id="Fill-7" fill="#FFFFFF" points="6 26 10 26 10 22 6 22"></polygon>
                <polygon id="Fill-8" fill="#FFFFFF" points="3 11 7 11 7 7 3 7"></polygon>
                <g id="Group-28">
                    <path d="M28.9587034,33.4833979 C28.8332131,34.1138344 25.4446882,42.6873105 24.1269376,44.1687356 L24.1269376,44.2002842 C23.6563388,44.7676236 23.0602086,45.3034967 22.3699505,45.7763138 L22.5268031,47.6675412 C22.5268031,48.9598394 18.918701,49.9999959 14.4320438,49.9999959 C9.9767899,49.9999959 6.33728441,48.9598394 6.33728441,47.6675412 L6.49417803,45.6502018 C5.86664457,45.2089333 5.30191775,44.7046087 4.86268122,44.1687356 C3.54493065,42.6873105 0.156405756,34.1453418 0.0309154623,33.4833979 C-0.0632125068,32.9475659 0.0622777866,32.0650288 0.344661694,31.4030848 L0.344661694,31.4976483 C0.344661694,34.3344687 6.68239297,36.635416 14.4948094,36.635416 C22.3071849,36.635416 28.6449572,34.3344687 28.6449572,31.4976483 L28.6449572,31.3715774 C28.9273411,32.0334802 29.0841937,32.9475659 28.9587034,33.4833979" id="Fill-9" fill="#FFFFFF"></path>
                    <path d="M29.8058387,21.3481425 C29.4920925,21.8524671 28.4566848,22.5459185 28.0174483,22.7350041 C27.6095741,22.9556796 27.3272312,23.3969481 27.0448063,23.9327801 C26.7938257,24.4686532 24.9426696,28.2195181 24.9426696,28.2195181 C24.9426696,28.2195181 25.2250945,28.8814621 25.0995632,29.7009843 C25.852587,30.2053089 26.2604612,30.7726895 26.2604612,31.4030848 C26.2604612,33.3258196 22.0875502,34.9018081 16.5969297,35.2485132 C18.3225544,32.5693534 24.2210492,23.2708773 24.4407085,22.8295675 C24.7230924,22.2937356 25.2564569,21.1905231 25.3192225,20.7807619 C25.3819472,20.3710008 25.3819472,19.8351689 26.0094396,19.0156466 C26.5428041,18.2906878 27.3271902,18.3537026 27.5468084,18.3537026 L27.5782118,18.3537026 C28.2057042,18.4167586 28.770472,18.9210832 29.1783462,19.3939003 C29.6489451,19.8666763 30.1195849,20.8123105 29.8058387,21.3481425" id="Fill-11" fill="#FFFFFF"></path>
                    <path d="M51.4312723,19.7916969 L46.5288285,19.7916969 L46.5288285,24.6380313 L51.4312723,24.6380313 C53.1961717,24.6380313 54.1374514,23.8106013 54.1374514,22.1951565 C54.1374514,20.5009226 53.1177454,19.7916969 51.4312723,19.7916969 Z M53.6668115,35.0005107 L50.2939063,28.1841598 L46.5288285,28.1841598 L46.5288285,35.0005107 L42.7637508,35.0005107 L42.7637508,16.1273641 L51.5097396,16.1273641 C55.0394974,16.1273641 57.9809555,18.0974217 57.9809555,22.1163674 C57.9809555,24.953229 56.7651632,26.7262932 54.3727713,27.6719275 L57.9809555,35.0005107 L53.6668115,35.0005107 Z" id="Fill-13" fill="#FFFFFF"></path>
                    <polygon id="Fill-15" fill="#FFFFFF" points="64.609106 35.0005272 64.609106 16.1273806 77.6692387 16.1273806 77.6692387 19.8310873 68.3741837 19.8310873 68.3741837 23.1013921 73.786501 23.1013921 73.786501 26.7657249 68.3741837 26.7657249 68.3741837 31.3361944 78.0614522 31.3361944 78.0614522 35.0399423 64.609106 35.0399423"></polygon>
                    <path d="M98.6125601,35.0005272 L98.6125601,28.0659308 C98.6125601,27.0415074 98.6517938,24.6380066 98.6517938,23.8894069 C98.3772812,24.5986326 97.8281741,25.9382949 97.3183416,27.0020923 L93.5140301,35.394514 L89.7097187,27.0020923 C89.2390379,25.9382949 88.6507791,24.5592175 88.3762665,23.8894069 C88.3762665,24.5986326 88.4154591,27.0020923 88.4154591,28.0659308 L88.4154591,35.0005272 L84.7288077,35.0005272 L84.7288077,16.1273806 L88.3762665,16.1273806 L92.2982379,24.6774217 C92.7688367,25.7412603 93.3571365,27.1597117 93.5924564,27.8295222 C93.8277764,27.1202965 94.3768425,25.7412603 94.8474824,24.6774217 L98.6910274,16.1273806 L102.416913,16.1273806 L102.416913,35.0399423 L98.6125601,35.0399423 L98.6125601,35.0005272 Z" id="Fill-17" fill="#FFFFFF"></path>
                    <polygon id="Fill-19" fill="#FFFFFF" points="109.907859 35.0005272 109.907859 16.1273806 122.967992 16.1273806 122.967992 19.8310873 113.672937 19.8310873 113.672937 23.1013921 119.085254 23.1013921 119.085254 26.7657249 113.672937 26.7657249 113.672937 31.3361944 123.360246 31.3361944 123.360246 35.0399423 109.907859 35.0399423"></polygon>
                    <path d="M135.792866,19.7916969 L133.792647,19.7916969 L133.792647,31.3362191 L135.635972,31.3362191 C139.597177,31.3362191 141.401311,29.0115486 141.401311,25.5442504 C141.440503,21.7223394 139.793264,19.7916969 135.792866,19.7916969 M135.675206,35.0005107 L130.066762,35.0005107 L130.066762,16.1273641 L135.949719,16.1273641 C141.322843,16.1273641 145.284007,18.6490692 145.284007,25.5836656 C145.284007,32.2030643 140.499224,35.0005107 135.675206,35.0005107" id="Fill-21" fill="#FFFFFF"></path>
                    <g id="Group-25" transform="translate(147.751394, 16.103789)">
                        <mask id="mask-2" fill="white">
                            <use xlink:href="#path-1"></use>
                        </mask>
                        <g id="Clip-24"></g>
                        <path d="M10.9065496,11.44993 L10.9065496,18.9361738 L7.1414308,18.9361738 L7.1414308,11.5287191 L0.00348880234,0.0235708402 L4.31763273,0.0235708402 L6.98457819,4.51533361 C7.6513043,5.65796129 8.6710103,7.50981466 9.02399019,8.21904036 C9.37697007,7.50981466 10.3574424,5.69737644 11.0634432,4.51533361 L13.7303886,0.0235708402 L18.0052989,0.0235708402 L10.9065496,11.44993 Z" id="Fill-23" fill="#FFFFFF" mask="url(#mask-2)"></path>
                    </g>
                    <mask id="mask-4" fill="white">
                        <use xlink:href="#path-3"></use>
                    </mask>
                    <g id="Clip-27"></g>
                    <path d="M10.1650417,32.9789951 L13.4280763,32.9789951 L13.4280763,29.7010708 L10.1650417,29.7010708 L10.1650417,32.9789951 Z M24.9740033,18.0385502 C24.660257,18.1329901 24.3151485,18.4167216 24.2211845,18.700453 C24.1269335,18.9527183 24.0327236,19.3938221 24.0642909,19.7090198 C24.0642909,20.0558896 23.9387596,20.5916804 23.781866,20.9383443 C23.6563347,21.2850494 19.3893777,26.9586491 18.7932066,27.7783361 C17.475538,27.5890857 16.0320922,27.4946458 14.4948873,27.4946458 C8.00013944,27.4946458 2.72926014,29.2282125 2.69769284,31.4031713 C2.69769284,33.4834843 7.59238823,35.185626 13.7731849,35.3115321 C14.6202136,34.2082784 17.0362195,30.9933278 19.3893777,27.8727759 C21.9307099,24.5002059 24.3780371,21.1906096 24.4407208,21.0644563 C24.5975734,20.7807661 24.6917833,20.2135091 24.6917833,19.7721993 C24.7231047,19.3308484 24.7857883,18.9210049 24.9740033,18.6374794 C24.9740033,18.6058072 25.0055296,18.574341 25.0368919,18.5428748 C25.0368919,18.5113674 25.0682132,18.4799012 25.0995345,18.448229 C25.1308559,18.448229 25.1624232,18.4167216 25.1937445,18.3852554 C25.2250658,18.3223229 25.2877495,18.2906096 25.3506381,18.2591433 C25.4132808,18.2276359 25.4446021,18.1961697 25.5074907,18.1647035 C25.5388531,18.1647035 25.5388531,18.1329901 25.5701744,18.1329901 C25.6957057,18.0700577 25.8525583,18.0385502 25.9467683,18.007084 C25.9467683,18.007084 25.2877495,17.9124382 24.9740033,18.0385502 Z" id="Fill-26" fill="#FFFFFF" mask="url(#mask-4)"></path>
                </g>
            </g>
        </g>
    </g>
</svg>