<?xml version="1.0" encoding="UTF-8"?>
<svg width="34px" height="57px" viewBox="0 0 34 57" version="1.1" xmlns="http://www.w3.org/2000/svg" xmlns:xlink="http://www.w3.org/1999/xlink">
    <!-- Generator: Sketch 52.5 (67469) - http://www.bohemiancoding.com/sketch -->
    <title>remedy-equation</title>
    <desc>Created with Sketch.</desc>
    <defs>
        <polygon id="path-1" points="0.0390161644 0.0279057023 15.1607863 0.0279057023 15.1607863 19.2895653 0.0390161644 19.2895653"></polygon>
        <polygon id="path-3" points="0 57 33.9772247 57 33.9772247 0.0461540362 0 0.0461540362"></polygon>
    </defs>
    <g id="Symbols" stroke="none" stroke-width="1" fill="none" fill-rule="evenodd">
        <g id="Remedy/Equation" transform="translate(-96.000000, 0.000000)">
            <g id="Equation" transform="translate(1.000000, 0.000000)">
                <g id="Remedy/Icon" transform="translate(95.000000, 0.000000)">
                    <g id="Group-17">
                        <polygon id="Fill-1" fill="#FFFFFF" points="25 14 29 14 29 10 25 10"></polygon>
                        <polygon id="Fill-2" fill="#FFFFFF" points="19 4 23 4 23 0 19 0"></polygon>
                        <polygon id="Fill-3" fill="#FFFFFF" points="22 18 26 18 26 14 22 14"></polygon>
                        <polygon id="Fill-4" fill="#FFFFFF" points="18 28 22 28 22 24 18 24"></polygon>
                        <polygon id="Fill-5" fill="#FFFFFF" points="14 14 18 14 18 10 14 10"></polygon>
                        <polygon id="Fill-6" fill="#FFFFFF" points="9 22 13 22 13 18 9 18"></polygon>
                        <polygon id="Fill-7" fill="#FFFFFF" points="6 29 10 29 10 25 6 25"></polygon>
                        <polygon id="Fill-8" fill="#FFFFFF" points="4 12 8 12 8 8 4 8"></polygon>
                        <g id="Group-16">
                            <path d="M32.8994293,38.1710736 C32.7568622,38.8897713 28.9072238,48.663534 27.4101526,50.3523586 L27.4101526,50.388324 C26.8755142,51.0350909 26.1982622,51.6459862 25.4140732,52.1849978 L25.5922704,54.340997 C25.5922704,55.8142169 21.4931745,56.9999953 16.395969,56.9999953 C11.3344403,56.9999953 7.19966767,55.8142169 7.19966767,54.340997 L7.37791151,52.0412301 C6.66498274,51.5381839 6.0234074,50.963254 5.52439918,50.3523586 C4.02732795,48.663534 0.177689589,38.9256897 0.0351224658,38.1710736 C-0.0718145205,37.5602251 0.0707526027,36.5541329 0.391563562,35.7995167 L0.391563562,35.907319 C0.391563562,39.1412943 7.5917389,41.7643742 16.4672759,41.7643742 C25.3427663,41.7643742 32.5429882,39.1412943 32.5429882,35.907319 L32.5429882,35.7635983 C32.8637992,36.5181675 33.0419964,37.5602251 32.8994293,38.1710736" id="Fill-9" fill="#FFFFFF"></path>
                            <g id="Group-13" transform="translate(18.816438, 20.893740)">
                                <mask id="mask-2" fill="white">
                                    <use xlink:href="#path-1"></use>
                                </mask>
                                <g id="Clip-12"></g>
                                <path d="M15.0454052,3.44314275 C14.6889641,4.01807273 13.5126573,4.80860733 13.013649,5.02416499 C12.550271,5.27573501 12.2295066,5.77878114 11.908649,6.38962957 C11.6235148,7.00052496 9.52045178,11.276511 9.52045178,11.276511 C9.52045178,11.276511 9.84130932,12.0311271 9.69869562,12.9653825 C10.5541915,13.5403124 11.0175696,14.1871263 11.0175696,14.905777 C11.0175696,17.0976946 6.27680521,18.8943215 0.0390161644,19.2895653 C1.99946548,16.2353231 8.7006326,5.63506038 8.95018329,5.1319673 C9.27099425,4.52111886 9.87693945,3.26345659 9.9482463,2.79632891 C10.0195066,2.32920124 10.0195066,1.7183528 10.7323888,0.784097446 C11.338334,-0.0423556013 12.22946,0.0294813015 12.4789641,0.0294813015 L12.5146408,0.0294813015 C13.227523,0.101365157 13.8691449,0.67629514 14.332523,1.21530667 C14.8671614,1.75427125 15.4018463,2.83229432 15.0454052,3.44314275" id="Fill-11" fill="#FFFFFF" mask="url(#mask-2)"></path>
                            </g>
                            <mask id="mask-4" fill="white">
                                <use xlink:href="#path-3"></use>
                            </mask>
                            <g id="Clip-15"></g>
                            <path d="M11.5483096,37.5960544 L15.2553808,37.5960544 L15.2553808,33.8592208 L11.5483096,33.8592208 L11.5483096,37.5960544 Z M28.3724877,20.5639473 C28.0160466,20.6716087 27.6239753,20.9950626 27.5172247,21.3185165 C27.4101479,21.6060988 27.3031178,22.1089572 27.3389808,22.4682825 C27.3389808,22.8637142 27.1963671,23.4745157 27.0181233,23.8697125 C26.8755096,24.2649563 22.0279014,30.73286 21.3506027,31.6673031 C19.8536247,31.4515577 18.2137534,31.3438962 16.4673644,31.3438962 C9.08880548,31.3438962 3.10066027,33.3201623 3.06479726,35.7996153 C3.06479726,38.1711722 8.62556712,40.1116137 15.6474521,40.2551466 C16.6097452,38.9974374 19.3545233,35.3323937 22.0279014,31.7749646 C24.9150603,27.9302348 27.6954219,24.1572949 27.7666356,24.0134802 C27.9448329,23.6900733 28.051863,23.0434003 28.051863,22.5403072 C28.0874466,22.0371672 28.1586603,21.5699456 28.3724877,21.2467265 C28.3724877,21.2106203 28.4083041,21.1747488 28.4439342,21.1388773 C28.4439342,21.1029588 28.4795178,21.0670873 28.5151014,21.0309811 C28.5506849,21.0309811 28.5865479,20.9950626 28.6221315,20.9591911 C28.6577151,20.8874481 28.7289288,20.8512949 28.8003753,20.8154234 C28.8715425,20.7795049 28.907126,20.7436334 28.9785726,20.7077619 C29.0142027,20.7077619 29.0142027,20.6716087 29.0497863,20.6716087 C29.1924,20.5998657 29.3705973,20.5639473 29.4776274,20.5280758 C29.4776274,20.5280758 28.7289288,20.4201796 28.3724877,20.5639473 Z" id="Fill-14" fill="#FFFFFF" mask="url(#mask-4)"></path>
                        </g>
                    </g>
                </g>
            </g>
        </g>
    </g>
</svg>